<svg 
 xmlns="http://www.w3.org/2000/svg"
 xmlns:xlink="http://www.w3.org/1999/xlink"
 width="1002px" height="884px">
<path fill-rule="evenodd"  fill="rgb(255, 255, 255)"
 d="M79.025,398.299 C79.025,398.299 86.792,367.958 51.964,365.008 C17.137,362.057 2.728,395.581 2.005,400.379 C1.282,405.177 -1.685,431.537 4.087,444.073 C9.859,456.610 30.732,492.960 87.352,491.929 C143.971,490.898 151.717,416.137 151.882,406.621 C152.046,397.106 154.959,265.714 158.126,250.571 C161.294,235.429 164.252,176.495 210.167,131.973 C256.081,87.451 305.099,74.486 339.227,71.634 C373.355,68.781 418.306,66.967 474.532,86.198 C530.758,105.430 565.964,130.019 584.857,165.264 C603.751,200.509 633.757,269.348 643.143,337.959 C652.528,406.570 704.832,508.980 851.304,516.897 C888.805,519.973 1007.352,479.462 1001.180,379.573 C1001.236,351.597 971.958,303.032 922.079,304.669 C898.492,302.848 835.681,330.781 865.875,377.492 C866.665,351.943 895.040,352.771 901.263,354.605 C907.486,356.438 916.953,358.761 922.079,373.331 C920.978,391.358 906.956,418.836 867.957,417.025 C828.958,415.214 790.207,400.867 778.448,360.847 C771.140,343.481 746.884,270.069 743.060,227.684 C733.707,169.827 693.758,91.229 636.898,54.988 C580.037,18.748 504.779,0.717 441.226,0.891 C377.673,1.066 286.940,16.964 243.473,50.827 C200.005,84.690 149.334,124.566 135.229,213.119 C121.124,301.672 126.046,320.638 126.902,348.363 C127.759,376.087 127.432,395.227 104.004,414.944 C74.311,430.609 60.472,431.220 49.883,412.863 C45.191,402.979 44.796,394.874 60.291,394.137 C75.785,393.401 79.025,398.299 79.025,398.299 ZM224.738,406.621 C199.179,411.550 186.820,427.887 178.943,448.235 C176.242,475.824 182.895,506.214 199.759,514.816 C216.622,523.418 256.735,530.506 280.942,512.735 C301.525,485.653 302.379,456.181 289.268,433.670 C276.158,411.159 254.247,400.931 224.738,406.621 ZM214.330,431.589 C189.559,437.147 188.007,461.923 193.514,485.687 C199.021,509.450 218.478,513.212 235.146,512.735 C251.815,512.259 270.123,497.085 270.534,485.687 C270.945,474.288 273.131,453.422 262.207,444.073 C251.283,434.725 240.368,425.748 214.330,431.589 ZM228.901,475.283 C220.071,471.361 216.163,469.070 212.248,464.880 C208.334,460.690 196.111,464.962 199.759,475.283 C203.407,485.605 210.471,487.428 214.330,489.848 C218.189,492.268 239.060,499.043 258.044,496.090 C265.434,494.006 266.095,479.079 253.881,479.445 C241.666,479.811 234.119,477.601 228.901,475.283 ZM437.063,414.944 C426.393,415.376 362.523,411.203 372.533,502.332 C384.857,534.465 413.117,546.485 441.226,543.945 C469.335,541.405 512.089,532.712 505.756,471.122 C501.738,451.562 494.153,412.630 437.063,414.944 ZM430.818,441.993 C416.545,442.764 382.960,448.731 385.022,487.767 C384.857,499.376 386.129,529.535 430.818,533.542 C457.377,529.452 480.726,521.194 478.695,489.848 C478.207,471.613 475.339,465.714 468.287,458.638 C461.235,451.562 445.091,441.221 430.818,441.993 ZM403.757,489.848 C389.955,484.875 389.683,498.012 395.431,504.413 C401.178,510.813 437.288,523.204 464.124,506.493 C468.865,498.545 467.370,484.962 451.634,491.929 C433.093,493.288 412.875,494.755 403.757,489.848 ZM293.431,733.286 C255.619,752.693 251.292,765.608 203.922,768.658 C184.858,769.885 176.661,766.370 158.126,762.416 C124.832,750.755 65.308,721.367 83.188,643.817 C98.522,604.014 131.279,564.534 210.167,575.155 C262.745,584.505 299.759,619.740 330.900,639.656 C360.769,662.117 459.443,741.340 503.674,764.496 C549.179,787.228 627.981,818.735 688.938,814.432 C733.767,811.446 780.407,792.140 805.644,771.387 C826.739,754.040 840.580,725.813 830.488,695.834 C824.124,672.856 807.148,640.946 730.570,639.656 C707.036,640.487 570.587,637.390 449.553,677.108 C468.129,655.331 645.472,603.892 730.570,610.527 C815.669,617.161 828.021,627.158 855.467,652.140 C876.808,681.192 879.451,700.180 880.447,720.802 C880.301,747.592 875.064,785.783 824.243,826.916 C784.691,850.420 739.378,879.295 672.285,883.094 C606.041,883.076 552.823,861.222 514.083,845.642 C474.494,827.094 356.449,759.558 291.350,687.512 C258.077,659.996 232.606,629.469 168.535,629.253 C153.263,630.309 125.818,639.141 120.657,664.624 C119.740,694.349 138.745,725.492 170.616,735.367 C206.731,741.425 239.539,742.617 293.431,733.286 Z"/>
</svg>